<svg width="210" height="68" viewBox="0 0 210 68" fill="none" xmlns="http://www.w3.org/2000/svg">
<path d="M200.825 7.40382C200.901 7.08642 200.938 6.92772 200.899 6.86605C200.866 6.8129 200.806 6.78201 200.744 6.78529C200.671 6.7891 200.563 6.9114 200.347 7.156L199.473 8.14686C199.159 8.50268 199.002 8.68059 198.809 8.79176C198.639 8.8901 198.449 8.9503 198.253 8.9682C198.032 8.98844 197.801 8.93363 197.339 8.82401L196.053 8.51875C195.736 8.4434 195.577 8.40572 195.515 8.44459C195.462 8.47809 195.431 8.5377 195.435 8.60044C195.438 8.67324 195.561 8.78117 195.805 8.99702L196.796 9.87145C197.152 10.1855 197.33 10.3425 197.441 10.5351C197.539 10.7054 197.6 10.8951 197.618 11.091C197.638 11.3124 197.583 11.5433 197.473 12.005L197.168 13.2908C197.093 13.6082 197.055 13.7669 197.094 13.8286C197.127 13.8817 197.187 13.9126 197.25 13.9094C197.323 13.9055 197.431 13.7833 197.646 13.5387L198.521 12.5478C198.835 12.192 198.992 12.0141 199.184 11.9029C199.355 11.8045 199.544 11.7444 199.74 11.7264C199.962 11.7062 200.193 11.761 200.654 11.8706L201.94 12.1759C202.258 12.2513 202.416 12.2889 202.478 12.2501C202.531 12.2166 202.562 12.1569 202.559 12.0942C202.555 12.0214 202.433 11.9135 202.188 11.6976L201.197 10.8232C200.841 10.5092 200.663 10.3522 200.552 10.1596C200.454 9.98922 200.394 9.79955 200.376 9.60366C200.356 9.3822 200.41 9.15134 200.52 8.6896L200.825 7.40382Z" fill="#039B52"/>
<path d="M200.825 7.40382C200.901 7.08642 200.938 6.92772 200.899 6.86605C200.866 6.8129 200.806 6.78201 200.744 6.78529C200.671 6.7891 200.563 6.9114 200.347 7.156L199.473 8.14686C199.159 8.50268 199.002 8.68059 198.809 8.79176C198.639 8.8901 198.449 8.9503 198.253 8.9682C198.032 8.98844 197.801 8.93363 197.339 8.82401L196.053 8.51875C195.736 8.4434 195.577 8.40572 195.515 8.44459C195.462 8.47809 195.431 8.5377 195.435 8.60044C195.438 8.67324 195.561 8.78117 195.805 8.99702L196.796 9.87145C197.152 10.1855 197.33 10.3425 197.441 10.5351C197.539 10.7054 197.6 10.8951 197.618 11.091C197.638 11.3124 197.583 11.5433 197.473 12.005L197.168 13.2908C197.093 13.6082 197.055 13.7669 197.094 13.8286C197.127 13.8817 197.187 13.9126 197.25 13.9094C197.323 13.9055 197.431 13.7833 197.646 13.5387L198.521 12.5478C198.835 12.192 198.992 12.0141 199.184 11.9029C199.355 11.8045 199.544 11.7444 199.74 11.7264C199.962 11.7062 200.193 11.761 200.654 11.8706L201.94 12.1759C202.258 12.2513 202.416 12.2889 202.478 12.2501C202.531 12.2166 202.562 12.1569 202.559 12.0942C202.555 12.0214 202.433 11.9135 202.188 11.6976L201.197 10.8232C200.841 10.5092 200.663 10.3522 200.552 10.1596C200.454 9.98922 200.394 9.79955 200.376 9.60366C200.356 9.3822 200.41 9.15134 200.52 8.6896L200.825 7.40382Z" fill="#039B52"/>
<path d="M186.876 3.96949C186.921 3.64634 186.943 3.48476 186.899 3.42709C186.86 3.37739 186.798 3.35234 186.736 3.3616C186.664 3.37235 186.568 3.50441 186.376 3.76852L184.887 5.82292C184.469 6.39924 184.26 6.6874 183.989 6.88101C183.748 7.05226 183.474 7.16934 183.184 7.22416C182.856 7.28615 182.503 7.23741 181.798 7.13994L179.285 6.79249C178.962 6.74782 178.8 6.72549 178.742 6.77007C178.693 6.8085 178.668 6.87079 178.677 6.93293C178.688 7.00504 178.82 7.10078 179.084 7.29226L181.138 8.78172C181.714 9.19956 182.003 9.40848 182.196 9.68011C182.367 9.92039 182.485 10.195 182.539 10.4849C182.601 10.8126 182.553 11.1652 182.455 11.8704L182.108 14.384C182.063 14.7071 182.041 14.8687 182.085 14.9264C182.124 14.9761 182.186 15.0011 182.248 14.9919C182.32 14.9811 182.416 14.8491 182.607 14.585L184.097 12.5306C184.515 11.9542 184.724 11.6661 184.995 11.4725C185.236 11.3012 185.51 11.1841 185.8 11.1293C186.128 11.0673 186.48 11.1161 187.186 11.2135L189.699 11.561C190.022 11.6057 190.184 11.628 190.242 11.5834C190.291 11.545 190.316 11.4827 190.307 11.4205C190.296 11.3484 190.164 11.2527 189.9 11.0612L187.846 9.57176C187.269 9.15392 186.981 8.945 186.788 8.67337C186.616 8.43309 186.499 8.15852 186.445 7.8686C186.383 7.54084 186.431 7.18826 186.529 6.48312L186.876 3.96949Z" fill="#039B52"/>
<path d="M186.876 3.96949C186.921 3.64634 186.943 3.48476 186.899 3.42709C186.86 3.37739 186.798 3.35234 186.736 3.3616C186.664 3.37235 186.568 3.50441 186.376 3.76852L184.887 5.82292C184.469 6.39924 184.26 6.6874 183.989 6.88101C183.748 7.05226 183.474 7.16934 183.184 7.22416C182.856 7.28615 182.503 7.23741 181.798 7.13994L179.285 6.79249C178.962 6.74782 178.8 6.72549 178.742 6.77007C178.693 6.8085 178.668 6.87079 178.677 6.93293C178.688 7.00504 178.82 7.10078 179.084 7.29226L181.138 8.78172C181.714 9.19956 182.003 9.40848 182.196 9.68011C182.367 9.92039 182.485 10.195 182.539 10.4849C182.601 10.8126 182.553 11.1652 182.455 11.8704L182.108 14.384C182.063 14.7071 182.041 14.8687 182.085 14.9264C182.124 14.9761 182.186 15.0011 182.248 14.9919C182.32 14.9811 182.416 14.8491 182.607 14.585L184.097 12.5306C184.515 11.9542 184.724 11.6661 184.995 11.4725C185.236 11.3012 185.51 11.1841 185.8 11.1293C186.128 11.0673 186.48 11.1161 187.186 11.2135L189.699 11.561C190.022 11.6057 190.184 11.628 190.242 11.5834C190.291 11.545 190.316 11.4827 190.307 11.4205C190.296 11.3484 190.164 11.2527 189.9 11.0612L187.846 9.57176C187.269 9.15392 186.981 8.945 186.788 8.67337C186.616 8.43309 186.499 8.15852 186.445 7.8686C186.383 7.54084 186.431 7.18826 186.529 6.48312L186.876 3.96949Z" fill="#039B52"/>
<path d="M202.131 18.0784C202.196 17.7586 202.228 17.5987 202.187 17.5384C202.152 17.4864 202.091 17.4576 202.029 17.463C201.956 17.4692 201.852 17.5951 201.645 17.8469L199.461 20.4982C198.897 21.1828 198.615 21.5251 198.262 21.745C197.95 21.9395 197.6 22.064 197.235 22.1099C196.822 22.1617 196.388 22.074 195.518 21.8985L192.151 21.219C191.831 21.1544 191.671 21.1222 191.611 21.1631C191.559 21.1984 191.53 21.259 191.536 21.3216C191.542 21.3942 191.668 21.498 191.919 21.7054L194.571 23.8896C195.255 24.4536 195.598 24.7355 195.818 25.0883C196.012 25.4003 196.137 25.7507 196.182 26.1155C196.234 26.5279 196.147 26.9627 195.971 27.8321L195.292 31.1993C195.227 31.5191 195.195 31.679 195.236 31.7393C195.271 31.7913 195.332 31.8202 195.394 31.8147C195.467 31.8085 195.571 31.6826 195.778 31.4308L197.962 28.7795C198.526 28.0949 198.808 27.7526 199.161 27.5327C199.473 27.3382 199.823 27.2137 200.188 27.1679C200.6 27.116 201.035 27.2037 201.905 27.3792L205.272 28.0587C205.592 28.1233 205.752 28.1555 205.812 28.1146C205.864 28.0793 205.893 28.0187 205.887 27.9561C205.881 27.8835 205.755 27.7798 205.503 27.5723L202.852 25.3882C202.167 24.8242 201.825 24.5422 201.605 24.1895C201.411 23.8775 201.286 23.527 201.24 23.1622C201.189 22.7498 201.276 22.3151 201.452 21.4456L202.131 18.0784Z" fill="#039B52"/>
<path d="M202.131 18.0784C202.196 17.7586 202.228 17.5987 202.187 17.5384C202.152 17.4864 202.091 17.4576 202.029 17.463C201.956 17.4692 201.852 17.5951 201.645 17.8469L199.461 20.4982C198.897 21.1828 198.615 21.5251 198.262 21.745C197.95 21.9395 197.6 22.064 197.235 22.1099C196.822 22.1617 196.388 22.074 195.518 21.8985L192.151 21.219C191.831 21.1544 191.671 21.1222 191.611 21.1631C191.559 21.1984 191.53 21.259 191.536 21.3216C191.542 21.3942 191.668 21.498 191.919 21.7054L194.571 23.8896C195.255 24.4536 195.598 24.7355 195.818 25.0883C196.012 25.4003 196.137 25.7507 196.182 26.1155C196.234 26.5279 196.147 26.9627 195.971 27.8321L195.292 31.1993C195.227 31.5191 195.195 31.679 195.236 31.7393C195.271 31.7913 195.332 31.8202 195.394 31.8147C195.467 31.8085 195.571 31.6826 195.778 31.4308L197.962 28.7795C198.526 28.0949 198.808 27.7526 199.161 27.5327C199.473 27.3382 199.823 27.2137 200.188 27.1679C200.6 27.116 201.035 27.2037 201.905 27.3792L205.272 28.0587C205.592 28.1233 205.752 28.1555 205.812 28.1146C205.864 28.0793 205.893 28.0187 205.887 27.9561C205.881 27.8835 205.755 27.7798 205.503 27.5723L202.852 25.3882C202.167 24.8242 201.825 24.5422 201.605 24.1895C201.411 23.8775 201.286 23.527 201.24 23.1622C201.189 22.7498 201.276 22.3151 201.452 21.4456L202.131 18.0784Z" fill="#039B52"/>
<path d="M14.8268 46.1249C11.973 46.1249 9.45046 45.5643 7.25914 44.4431C5.06783 43.2965 3.37338 41.6785 2.1758 39.5891C0.978215 37.4997 0.379425 35.0409 0.379425 32.2125C0.379425 29.3842 0.978215 26.9253 2.1758 24.8359C3.37338 22.721 5.06783 21.103 7.25914 19.9819C9.45046 18.8353 11.973 18.262 14.8268 18.262C18.5215 18.262 21.6046 19.1028 24.0762 20.7845V26.2883C22.9551 25.3455 21.6683 24.6703 20.2159 24.2626C18.789 23.8294 17.1583 23.6129 15.3237 23.6129C12.5463 23.6129 10.3423 24.39 8.71153 25.9443C7.10626 27.4732 6.30363 29.5626 6.30363 32.2125C6.30363 34.888 7.119 37.0029 8.74975 38.5572C10.3805 40.086 12.5718 40.8504 15.3237 40.8504C17.2093 40.8504 18.8782 40.6338 20.3306 40.2007C21.783 39.742 23.1335 39.0158 24.382 38.0221V43.5259C22.0378 45.2585 18.8527 46.1249 14.8268 46.1249Z" fill="#039B52"/>
<path d="M28.8389 18.8353H34.6484V40.6975H46.879V45.5516H28.8389V18.8353Z" fill="#039B52"/>
<path d="M50.0021 18.8353H68.5391V23.6893H55.8116V29.8811H65.1757V34.544H55.8116V40.6975H68.5391V45.5516H50.0021V18.8353Z" fill="#039B52"/>
<path d="M82.4837 18.8353H88.1785L98.8421 45.5516H92.9179L90.6247 39.742H80.0375L77.7443 45.5516H71.7819L82.4837 18.8353ZM89.0958 35.1173L85.312 24.9506L81.5281 35.1173H89.0958Z" fill="#039B52"/>
<path d="M103.265 18.8353H108.921L120.082 36.111V18.8353H125.891V45.5516H120.273L109.074 28.2758V45.5516H103.265V18.8353Z" fill="#039B52"/>
<path d="M131.072 18.8353H136.881V45.5516H131.072V18.8353Z" fill="#039B52"/>
<path d="M142.082 18.8353H147.892V40.6975H160.123V45.5516H142.082V18.8353Z" fill="#039B52"/>
<path d="M0.63043 56.2819H5.5193V57.562H2.16261V59.195H4.63225V60.4248H2.16261V62.0477H5.5193V63.3279H0.63043V56.2819ZM7.16835 56.2819H8.70054V63.3279H7.16835V56.2819ZM10.6645 56.2819H12.1564L15.0998 60.8381V56.2819H16.632V63.3279H15.1502L12.1967 58.7717V63.3279H10.6645V56.2819ZM18.5904 56.2819H23.4793V57.5721H20.1226V59.2152H22.5922V60.3946H20.1226V63.3279H18.5904V56.2819ZM26.5876 56.2819H28.0896L30.9019 63.3279H29.3395L28.7347 61.7957H25.9425L25.3377 63.3279H23.7652L26.5876 56.2819ZM28.3315 60.576L27.3335 57.8947L26.3356 60.576H28.3315ZM35.7179 63.4791C34.9653 63.4791 34.3 63.3312 33.7221 63.0356C33.1441 62.7332 32.6973 62.3064 32.3814 61.7554C32.0656 61.2043 31.9076 60.5558 31.9076 59.8099C31.9076 59.064 32.0656 58.4155 32.3814 57.8644C32.6973 57.3067 33.1441 56.8799 33.7221 56.5843C34.3 56.2819 34.9653 56.1307 35.7179 56.1307C36.6924 56.1307 37.5055 56.3524 38.1573 56.7959V58.2475C37.8617 57.9988 37.5223 57.8208 37.1392 57.7132C36.7629 57.599 36.3328 57.5419 35.849 57.5419C35.1165 57.5419 34.5352 57.7468 34.1051 58.1568C33.6818 58.56 33.4701 59.111 33.4701 59.8099C33.4701 60.5155 33.6851 61.0733 34.1152 61.4832C34.5453 61.8864 35.1232 62.088 35.849 62.088C36.3463 62.088 36.7864 62.0309 37.1695 61.9167C37.5525 61.7957 37.9087 61.6042 38.238 61.3421V62.7936C37.6197 63.2506 36.7797 63.4791 35.7179 63.4791ZM40.0056 56.2819H41.5378V59.1043H44.6123V56.2819H46.1444V63.3279H44.6123V60.3744H41.5378V63.3279H40.0056V56.2819ZM48.4719 63.3279C48.3106 63.3279 48.1728 63.2741 48.0586 63.1666C47.951 63.0591 47.8973 62.9247 47.8973 62.7634C47.8973 62.6021 47.9544 62.4643 48.0686 62.3501C48.1829 62.2359 48.3173 62.1787 48.4719 62.1787C48.6331 62.1787 48.7709 62.2359 48.8851 62.3501C48.9994 62.4643 49.0565 62.6021 49.0565 62.7634C49.0565 62.9247 48.9994 63.0591 48.8851 63.1666C48.7709 63.2741 48.6331 63.3279 48.4719 63.3279ZM57.3557 63.4791C56.9256 63.4791 56.4989 63.4388 56.0755 63.3581C55.6521 63.2775 55.3061 63.17 55.0373 63.0356V61.6848C55.3934 61.8595 55.763 61.9906 56.1461 62.0779C56.5291 62.1653 56.8954 62.209 57.2448 62.209C57.6346 62.209 57.9303 62.1418 58.1319 62.0074C58.3335 61.873 58.4343 61.6848 58.4343 61.4429C58.4343 61.2682 58.3839 61.1203 58.2831 60.9994C58.1823 60.8784 58.0344 60.7709 57.8395 60.6768C57.6514 60.576 57.3591 60.445 56.9626 60.2837C56.304 60.0149 55.8269 59.7158 55.5312 59.3865C55.2355 59.0505 55.0877 58.6373 55.0877 58.1467C55.0877 57.7502 55.1952 57.4008 55.4102 57.0983C55.6253 56.7892 55.9277 56.5507 56.3174 56.3827C56.7072 56.2147 57.1575 56.1307 57.6682 56.1307C58.0848 56.1307 58.4544 56.1643 58.777 56.2315C59.0996 56.2987 59.4154 56.4028 59.7245 56.5439V57.8544C59.1332 57.5587 58.5418 57.4108 57.9504 57.4108C57.5741 57.4108 57.2784 57.478 57.0634 57.6124C56.8483 57.7401 56.7408 57.9249 56.7408 58.1668C56.7408 58.3416 56.7912 58.486 56.892 58.6003C56.9928 58.7145 57.1339 58.8153 57.3154 58.9027C57.4968 58.9901 57.7925 59.1177 58.2024 59.2857C58.6796 59.4873 59.0525 59.6822 59.3213 59.8704C59.5901 60.0518 59.7884 60.2702 59.9161 60.5256C60.0437 60.7742 60.1076 61.0834 60.1076 61.453C60.1076 62.0914 59.8757 62.5887 59.412 62.9448C58.9551 63.301 58.2696 63.4791 57.3557 63.4791ZM65.228 63.4791C64.4753 63.4791 63.81 63.3312 63.2321 63.0356C62.6542 62.7332 62.2073 62.3064 61.8914 61.7554C61.5756 61.2043 61.4177 60.5558 61.4177 59.8099C61.4177 59.064 61.5756 58.4155 61.8914 57.8644C62.2073 57.3067 62.6542 56.8799 63.2321 56.5843C63.81 56.2819 64.4753 56.1307 65.228 56.1307C66.2024 56.1307 67.0155 56.3524 67.6674 56.7959V58.2475C67.3717 57.9988 67.0323 57.8208 66.6493 57.7132C66.273 57.599 65.8429 57.5419 65.359 57.5419C64.6265 57.5419 64.0452 57.7468 63.6152 58.1568C63.1918 58.56 62.9801 59.111 62.9801 59.8099C62.9801 60.5155 63.1951 61.0733 63.6252 61.4832C64.0553 61.8864 64.6332 62.088 65.359 62.088C65.8563 62.088 66.2965 62.0309 66.6795 61.9167C67.0626 61.7957 67.4187 61.6042 67.748 61.3421V62.7936C67.1298 63.2506 66.2898 63.4791 65.228 63.4791ZM69.5157 56.2819H71.0479V59.1043H74.1223V56.2819H75.6545V63.3279H74.1223V60.3744H71.0479V63.3279H69.5157V56.2819ZM77.6089 56.2819H79.1008L82.0442 60.8381V56.2819H83.5764V63.3279H82.0946L79.1411 58.7717V63.3279H77.6089V56.2819ZM85.5348 56.2819H90.4237V57.562H87.067V59.195H89.5367V60.4248H87.067V62.0477H90.4237V63.3279H85.5348V56.2819ZM92.0728 56.2819H93.6049V62.0477H96.8306V63.3279H92.0728V56.2819ZM98.3941 56.2819H99.9263V62.0477H103.152V63.3279H98.3941V56.2819ZM105.088 63.3279C104.927 63.3279 104.789 63.2741 104.675 63.1666C104.568 63.0591 104.514 62.9247 104.514 62.7634C104.514 62.6021 104.571 62.4643 104.685 62.3501C104.799 62.2359 104.934 62.1787 105.088 62.1787C105.25 62.1787 105.387 62.2359 105.502 62.3501C105.616 62.4643 105.673 62.6021 105.673 62.7634C105.673 62.9247 105.616 63.0591 105.502 63.1666C105.387 63.2741 105.25 63.3279 105.088 63.3279ZM111.654 62.3098L115.101 57.562H111.745V56.2819H116.996V57.31L113.569 62.0477H117.198V63.3279H111.654V62.3098ZM121.674 63.4791C120.646 63.4791 119.87 63.2103 119.346 62.6727C118.822 62.1283 118.56 61.3992 118.56 60.4853V56.2819H120.092V60.5054C120.092 61.0162 120.233 61.4059 120.515 61.6747C120.797 61.9435 121.184 62.0779 121.674 62.0779C122.158 62.0779 122.538 61.9435 122.813 61.6747C123.096 61.4059 123.237 61.0162 123.237 60.5054V56.2819H124.769V60.4853C124.769 61.3992 124.51 62.1283 123.993 62.6727C123.475 63.2103 122.702 63.4791 121.674 63.4791ZM126.482 56.2819H128.115L130.05 61.2917L131.996 56.2819H133.619L130.806 63.3279H129.304L126.482 56.2819ZM135.377 56.2819H140.266V57.562H136.909V59.195H139.379V60.4248H136.909V62.0477H140.266V63.3279H135.377V56.2819ZM141.915 56.2819H144.969C145.769 56.2819 146.391 56.4835 146.834 56.8867C147.285 57.2831 147.51 57.8577 147.51 58.6104C147.51 59.1345 147.389 59.5814 147.147 59.951C146.905 60.3139 146.562 60.5794 146.119 60.7474L147.459 63.3279H145.887L144.647 60.9389H143.447V63.3279H141.915V56.2819ZM144.697 59.6587C145.087 59.6587 145.393 59.5747 145.615 59.4067C145.843 59.2387 145.957 58.9733 145.957 58.6104C145.957 58.2273 145.846 57.9585 145.625 57.804C145.403 57.6427 145.094 57.562 144.697 57.562H143.447V59.6587H144.697ZM149.27 56.2819H150.802V62.0477H154.028V63.3279H149.27V56.2819ZM157.769 55.7476C157.567 55.7476 157.396 55.6804 157.255 55.546C157.114 55.4049 157.043 55.2335 157.043 55.0319C157.043 54.8303 157.114 54.659 157.255 54.5178C157.403 54.3767 157.574 54.3061 157.769 54.3061C157.964 54.3061 158.132 54.3767 158.273 54.5178C158.414 54.659 158.485 54.8303 158.485 55.0319C158.485 55.2335 158.414 55.4049 158.273 55.546C158.132 55.6804 157.964 55.7476 157.769 55.7476ZM160.158 55.7476C159.956 55.7476 159.781 55.6804 159.634 55.546C159.493 55.4049 159.422 55.2335 159.422 55.0319C159.422 54.8303 159.493 54.659 159.634 54.5178C159.781 54.3767 159.956 54.3061 160.158 54.3061C160.353 54.3061 160.521 54.3767 160.662 54.5178C160.803 54.659 160.874 54.8303 160.874 55.0319C160.874 55.2335 160.803 55.4049 160.662 55.546C160.521 55.6804 160.353 55.7476 160.158 55.7476ZM158.212 56.2819H159.714L162.527 63.3279H160.964L160.359 61.7957H157.567L156.962 63.3279H155.39L158.212 56.2819ZM159.956 60.576L158.958 57.8947L157.96 60.576H159.956ZM166.402 63.4791C165.972 63.4791 165.545 63.4388 165.122 63.3581C164.699 63.2775 164.352 63.17 164.084 63.0356V61.6848C164.44 61.8595 164.809 61.9906 165.192 62.0779C165.575 62.1653 165.942 62.209 166.291 62.209C166.681 62.209 166.977 62.1418 167.178 62.0074C167.38 61.873 167.481 61.6848 167.481 61.4429C167.481 61.2682 167.43 61.1203 167.329 60.9994C167.229 60.8784 167.081 60.7709 166.886 60.6768C166.698 60.576 166.405 60.445 166.009 60.2837C165.35 60.0149 164.873 59.7158 164.578 59.3865C164.282 59.0505 164.134 58.6373 164.134 58.1467C164.134 57.7502 164.242 57.4008 164.457 57.0983C164.672 56.7892 164.974 56.5507 165.364 56.3827C165.754 56.2147 166.204 56.1307 166.715 56.1307C167.131 56.1307 167.501 56.1643 167.823 56.2315C168.146 56.2987 168.462 56.4028 168.771 56.5439V57.8544C168.18 57.5587 167.588 57.4108 166.997 57.4108C166.62 57.4108 166.325 57.478 166.11 57.6124C165.895 57.7401 165.787 57.9249 165.787 58.1668C165.787 58.3416 165.838 58.486 165.938 58.6003C166.039 58.7145 166.18 58.8153 166.362 58.9027C166.543 58.9901 166.839 59.1177 167.249 59.2857C167.726 59.4873 168.099 59.6822 168.368 59.8704C168.636 60.0518 168.835 60.2702 168.962 60.5256C169.09 60.7742 169.154 61.0834 169.154 61.453C169.154 62.0914 168.922 62.5887 168.458 62.9448C168.001 63.301 167.316 63.4791 166.402 63.4791ZM172.684 63.4791C172.254 63.4791 171.827 63.4388 171.404 63.3581C170.98 63.2775 170.634 63.17 170.366 63.0356V61.6848C170.722 61.8595 171.091 61.9906 171.474 62.0779C171.857 62.1653 172.224 62.209 172.573 62.209C172.963 62.209 173.259 62.1418 173.46 62.0074C173.662 61.873 173.763 61.6848 173.763 61.4429C173.763 61.2682 173.712 61.1203 173.611 60.9994C173.511 60.8784 173.363 60.7709 173.168 60.6768C172.98 60.576 172.687 60.445 172.291 60.2837C171.632 60.0149 171.155 59.7158 170.86 59.3865C170.564 59.0505 170.416 58.6373 170.416 58.1467C170.416 57.7502 170.524 57.4008 170.739 57.0983C170.954 56.7892 171.256 56.5507 171.646 56.3827C172.036 56.2147 172.486 56.1307 172.997 56.1307C173.413 56.1307 173.783 56.1643 174.105 56.2315C174.428 56.2987 174.744 56.4028 175.053 56.5439V57.8544C174.462 57.5587 173.87 57.4108 173.279 57.4108C172.902 57.4108 172.607 57.478 172.392 57.6124C172.177 57.7401 172.069 57.9249 172.069 58.1668C172.069 58.3416 172.12 58.486 172.22 58.6003C172.321 58.7145 172.462 58.8153 172.644 58.9027C172.825 58.9901 173.121 59.1177 173.531 59.2857C174.008 59.4873 174.381 59.6822 174.65 59.8704C174.918 60.0518 175.117 60.2702 175.244 60.5256C175.372 60.7742 175.436 61.0834 175.436 61.453C175.436 62.0914 175.204 62.5887 174.74 62.9448C174.283 63.301 173.598 63.4791 172.684 63.4791ZM177.204 56.2819H178.736V63.3279H177.204V56.2819ZM184.308 63.4791C183.556 63.4791 182.89 63.3312 182.313 63.0356C181.735 62.7332 181.288 62.3064 180.972 61.7554C180.656 61.2043 180.498 60.5558 180.498 59.8099C180.498 59.064 180.656 58.4155 180.972 57.8644C181.288 57.3067 181.735 56.8799 182.313 56.5843C182.89 56.2819 183.556 56.1307 184.308 56.1307C184.819 56.1307 185.269 56.1844 185.659 56.2919C186.056 56.3927 186.419 56.554 186.748 56.7758V58.2374C186.452 57.9955 186.113 57.8208 185.73 57.7132C185.353 57.599 184.923 57.5419 184.439 57.5419C183.989 57.5419 183.583 57.636 183.22 57.8241C182.864 58.0056 182.581 58.2676 182.373 58.6104C182.165 58.9531 182.061 59.3529 182.061 59.8099C182.061 60.2736 182.155 60.6802 182.343 61.0296C182.538 61.3723 182.81 61.6378 183.159 61.8259C183.509 62.0141 183.912 62.1082 184.369 62.1082C184.786 62.1082 185.148 62.0343 185.458 61.8864V60.5256H184.319V59.3966H186.939V62.7936C186.274 63.2506 185.397 63.4791 184.308 63.4791ZM189.077 63.3279C188.916 63.3279 188.778 63.2741 188.664 63.1666C188.557 63.0591 188.503 62.9247 188.503 62.7634C188.503 62.6021 188.56 62.4643 188.674 62.3501C188.788 62.2359 188.923 62.1787 189.077 62.1787C189.239 62.1787 189.376 62.2359 189.491 62.3501C189.605 62.4643 189.662 62.6021 189.662 62.7634C189.662 62.9247 189.605 63.0591 189.491 63.1666C189.376 63.2741 189.239 63.3279 189.077 63.3279Z" fill="#444E4A"/>
<g clip-path="url(#clip0_1653_17810)">
<path fill-rule="evenodd" clip-rule="evenodd" d="M162.01 28.9978C161.445 31.4178 161.509 33.92 162.202 36.5043C162.392 37.215 162.62 37.8948 162.886 38.5435L160.758 40.6622C160.643 40.7758 160.552 40.911 160.49 41.0599C160.428 41.2089 160.396 41.3686 160.396 41.5299C160.396 41.6913 160.428 41.851 160.49 41.9999C160.552 42.1489 160.643 42.284 160.758 42.3976C160.872 42.5122 161.007 42.6031 161.157 42.6651C161.306 42.7272 161.466 42.7591 161.628 42.7591C161.789 42.7591 161.949 42.7272 162.098 42.6651C162.248 42.6031 162.383 42.5122 162.497 42.3976L164.061 40.8362C164.559 41.6257 165.128 42.3559 165.769 43.0268C166.459 43.7558 167.203 44.3914 168.001 44.9338L166.525 46.4062C166.295 46.6363 166.165 46.9485 166.165 47.2739C166.165 47.5994 166.295 47.9115 166.525 48.1416C166.756 48.3718 167.069 48.501 167.395 48.501C167.721 48.501 168.034 48.3718 168.264 48.1416L168.264 48.0927L170.215 46.1418C170.732 46.3618 171.267 46.5504 171.821 46.7077C174.186 47.3663 176.686 47.3428 179.32 46.6371C181.953 45.9315 184.13 44.702 185.849 42.9486C187.569 41.1952 188.715 39.1208 189.286 36.7254C189.865 34.3547 189.807 31.8771 189.115 29.2928C188.423 26.7085 187.227 24.5097 185.527 22.6965C183.835 20.9078 181.805 19.6841 179.439 19.0255C177.073 18.3669 174.574 18.3904 171.94 19.096C169.307 19.8017 167.13 21.0312 165.41 22.7846C163.715 24.5313 162.582 26.6024 162.01 28.9978ZM170.215 46.1418L173.786 42.5687C174.351 42.6843 174.925 42.7417 175.501 42.7398C177.08 42.7394 178.633 42.3418 180.017 41.5836C181.401 40.8255 182.571 39.7314 183.419 38.4024C184.267 37.0734 184.766 35.5524 184.87 33.9801C184.973 32.4077 184.678 30.8347 184.011 29.4064C183.928 29.2255 183.802 29.0674 183.644 28.946C183.486 28.8246 183.301 28.7436 183.105 28.7098C182.911 28.6762 182.712 28.6898 182.524 28.7493C182.336 28.8089 182.166 28.9127 182.027 29.052L176.713 34.3683L174.509 32.1684L179.835 26.8644C179.973 26.7247 180.074 26.5541 180.132 26.3669C180.19 26.1797 180.201 25.9815 180.166 25.7889C180.133 25.5941 180.054 25.4101 179.935 25.2526C179.815 25.0951 179.659 24.9688 179.48 24.8846C178.045 24.2167 176.463 23.9221 174.883 24.0282C173.302 24.1343 171.774 24.6376 170.441 25.4914C169.108 26.3451 168.013 27.5215 167.258 28.9112C166.502 30.3008 166.111 31.8585 166.121 33.4395C166.119 34.0141 166.177 34.5875 166.293 35.1504L162.886 38.5435C163.218 39.3565 163.61 40.1207 164.061 40.8362L168.497 36.4092C168.646 36.2596 168.753 36.074 168.809 35.8705C168.865 35.6671 168.867 35.4527 168.815 35.2482C168.657 34.6581 168.575 34.0503 168.57 33.4395C168.562 32.5254 168.735 31.6187 169.08 30.7717C169.424 29.9247 169.933 29.1542 170.578 28.5044C171.222 27.8546 171.988 27.3384 172.833 26.9857C173.678 26.6329 174.585 26.4505 175.501 26.4489C175.911 26.4473 176.32 26.48 176.725 26.5467L171.913 31.3374C171.798 31.451 171.707 31.5862 171.645 31.7351C171.583 31.884 171.551 32.0438 171.551 32.2051C171.551 32.3664 171.583 32.5262 171.645 32.6751C171.707 32.824 171.798 32.9592 171.913 33.0728L175.844 36.9592C176.072 37.1794 176.377 37.3026 176.695 37.3026C177.012 37.3026 177.317 37.1794 177.546 36.9592L182.346 32.2051C182.412 32.6091 182.444 33.0179 182.443 33.4272C182.44 35.2629 181.707 37.0223 180.406 38.3192C179.104 39.6161 177.34 40.3445 175.501 40.3445C174.889 40.3402 174.28 40.2581 173.689 40.1C173.484 40.0483 173.269 40.0504 173.065 40.1061C172.861 40.1617 172.675 40.2691 172.525 40.4178L168.001 44.9338C168.697 45.4077 169.435 45.8103 170.215 46.1418Z" fill="#039B52"/>
</g>
<defs>
<clipPath id="clip0_1653_17810">
<rect x="185.415" y="15.4854" width="28.5126" height="27.8629" rx="13.9314" transform="rotate(75 185.415 15.4854)" fill="white"/>
</clipPath>
</defs>
</svg>
