<svg width="159" height="48" viewBox="0 0 159 48" fill="none" xmlns="http://www.w3.org/2000/svg">
<path fill-rule="evenodd" clip-rule="evenodd" d="M44.7689 25.8746C44.7689 38.0973 34.7494 47.9984 22.3907 47.9984C16.898 47.9984 11.8693 46.0437 7.97467 42.8075L9.53304 38.201C12.78 41.5136 17.3468 43.5752 22.3907 43.5752C32.28 43.5752 40.2921 35.6561 40.2921 25.8743C40.2921 16.1016 32.28 8.18221 22.3907 8.18221C21.4486 8.18206 20.5079 8.25568 19.5774 8.40241L21.1358 3.79903C21.5449 3.77147 21.9694 3.75925 22.3913 3.75925C34.7494 3.75951 44.7689 13.6609 44.7689 25.8746ZM14.1927 5.29804H14.1804C14.1618 5.30428 14.1464 5.31338 14.1281 5.31936C5.86494 8.56775 5.38105e-06 16.5513 5.38105e-06 25.8746C-0.00304112 30.2107 1.28757 34.4504 3.70865 38.0575L5.65124 32.1878V32.1756C4.87559 30.1642 4.47754 28.0286 4.47685 25.8746C4.47685 19.65 7.73613 14.184 12.6469 11.0274L14.4964 5.44207L14.5089 5.40229L14.1927 5.29804ZM21.1502 0.112579L4.97773 48H0.422684L3.70995 38.069L5.64968 32.2024V32.1894L12.6466 11.0612L14.5081 5.44337L14.1914 5.33938H14.1781L12.0262 4.62237L21.1502 0.112579ZM152.434 20.751C151.956 21.2163 151.374 21.4529 150.702 21.4529C150.03 21.4529 149.449 21.2226 148.972 20.7681C148.496 20.3137 148.249 19.7313 148.249 19.0432C148.249 18.3766 148.492 17.8021 148.97 17.3354C149.448 16.8688 150.03 16.6335 150.702 16.6335C151.374 16.6335 151.951 16.8646 152.419 17.3201C152.887 17.7756 153.125 18.3571 153.125 19.0432C153.125 19.7293 152.893 20.3041 152.434 20.751ZM141.93 37.471C140.708 38.7493 139.125 39.3964 137.215 39.3964C135.024 39.3964 133.124 38.559 131.569 36.9074C130.019 35.2615 129.232 33.2659 129.232 30.9755C129.232 28.6462 130.013 26.6339 131.554 24.9987C133.1 23.3572 135.005 22.5248 137.215 22.5248C139.124 22.5248 140.708 23.1799 141.93 24.4746V22.7952H145.811V39.1583H141.93V37.4721V37.471ZM140.787 27.5784C139.864 26.6165 138.791 26.1486 137.507 26.1486C136.204 26.1486 135.132 26.6113 134.229 27.5634C133.333 28.5063 132.88 29.6549 132.88 30.9763C132.88 32.2978 133.333 33.4409 134.228 34.3737C135.131 35.3161 136.204 35.7742 137.507 35.7742C138.792 35.7742 139.865 35.3109 140.787 34.3578C141.701 33.4149 142.164 32.278 142.164 30.9763C142.164 29.6746 141.701 28.5325 140.787 27.5792V27.5784ZM123.264 30.1083C123.264 28.9277 122.915 27.9765 122.226 27.2826C121.529 26.5794 120.709 26.2377 119.719 26.2377C118.559 26.2377 117.638 26.6537 116.903 27.5082C116.168 28.3628 115.794 29.4497 115.794 30.7364V39.1572H111.912V17.7093H115.794V24.4421C116.994 23.1682 118.537 22.5248 120.392 22.5248C122.226 22.5248 123.825 23.1362 125.146 24.342C126.473 25.5537 127.146 27.1817 127.146 29.1812V39.1572H123.264V30.1083ZM105.243 37.4942C104.021 38.7574 102.438 39.3964 100.528 39.3964C98.3367 39.3964 96.4373 38.559 94.8823 36.9074C93.3315 35.2615 92.5453 33.2659 92.5453 30.9755C92.5453 28.6462 93.3265 26.6339 94.8676 24.9987C96.4135 23.3572 98.3176 22.5248 100.528 22.5248C102.437 22.5248 104.021 23.1799 105.243 24.4746V17.71H109.122V39.158H105.241L105.243 37.4942ZM104.1 27.5784C103.177 26.6165 102.104 26.1486 100.82 26.1486C99.5171 26.1486 98.4447 26.6113 97.5416 27.5634C96.6465 28.5063 96.1927 29.6549 96.1927 30.9763C96.1927 32.2978 96.6415 33.4414 97.5266 34.3744C98.4201 35.3163 99.4972 35.7742 100.82 35.7742C102.104 35.7742 103.177 35.3109 104.1 34.3578C105.014 33.4149 105.477 32.278 105.477 30.9763C105.477 29.6746 105.013 28.5325 104.099 27.5792L104.1 27.5784ZM86.4012 37.471C85.1792 38.7493 83.5965 39.3964 81.6861 39.3964C79.4953 39.3964 77.5959 38.559 76.0406 36.9074C74.4901 35.2615 73.7036 33.2659 73.7036 30.9755C73.7036 28.6462 74.4851 26.6339 76.026 24.9987C77.5718 23.3572 79.4762 22.5248 81.6861 22.5248C83.5955 22.5248 85.1792 23.1799 86.4012 24.4746V22.7952H90.283V39.1583H86.4002V37.4721L86.4012 37.471ZM85.2582 27.5784C84.3352 26.6165 83.2623 26.1486 81.9788 26.1486C80.6757 26.1486 79.6033 26.6113 78.7002 27.5634C77.8051 28.5063 77.3513 29.6549 77.3513 30.9763C77.3513 32.2978 77.8046 33.4409 78.6991 34.3737C79.6023 35.3161 80.6752 35.7742 81.9788 35.7742C83.2633 35.7742 84.3362 35.3109 85.259 34.3578C86.1724 33.4149 86.6356 32.278 86.6356 30.9763C86.6356 29.6746 86.1721 28.5325 85.2582 27.5792V27.5784ZM64.0139 39.3964C62.1032 39.3964 60.5205 38.7415 59.2988 37.4466V45.4364H55.4173V22.7926H59.2988V24.4564C60.5208 23.1934 62.1037 22.5542 64.0139 22.5542C66.2039 22.5542 68.1034 23.3915 69.6591 25.0429C71.2102 26.6901 71.9964 28.6859 71.9964 30.975C71.9964 33.3046 71.2149 35.3106 69.6733 36.9375C68.1274 38.5694 66.2233 39.3964 64.0139 39.3964ZM67.0145 27.5777C66.121 26.6358 65.0439 26.1777 63.7212 26.1777C62.455 26.1777 61.3512 26.6542 60.4408 27.5943C59.5303 28.5344 59.0647 29.6741 59.0647 30.9755C59.0647 32.277 59.5277 33.4141 60.4408 34.357C61.3638 35.3101 62.4367 35.7734 63.7212 35.7734C65.0243 35.7734 66.0972 35.3153 67.0009 34.3729C67.8954 33.4396 68.3487 32.2967 68.3487 30.9755C68.3487 29.6543 67.8999 28.5105 67.0148 27.5777H67.0145ZM152.599 39.1572H148.717V22.7941H152.599V39.1572ZM55.4505 19.4555H57.9329V13.9843C57.9329 13.2054 58.1111 12.5565 58.4676 12.0374C58.824 11.5183 59.365 11.2583 60.0908 11.2575C60.6762 11.2575 61.128 11.4749 61.4464 11.9097C61.7649 12.3446 61.924 12.932 61.9238 13.6718V19.4555H64.4062V13.5949C64.457 12.907 64.6639 12.3456 65.0269 11.9108C65.39 11.4759 65.9024 11.2585 66.5641 11.2585C67.1495 11.2585 67.6014 11.4759 67.92 11.9108C68.2386 12.3456 68.3977 12.933 68.3974 13.6729V19.4555H70.8798V13.0887C70.8798 11.8166 70.5011 10.8106 69.7436 10.0709C68.9861 9.33121 68.0919 8.96127 67.0608 8.96109C66.4367 8.96109 65.8224 9.11708 65.2179 9.42905C64.6223 9.73257 64.1084 10.1732 63.7189 10.7141C63.3752 10.1562 62.9264 9.72464 62.3726 9.41943C61.8334 9.11817 61.2249 8.96055 60.6063 8.96187C59.5496 8.96187 58.6585 9.40314 57.9329 10.2857V9.13632H55.4505V19.4555ZM72.4256 14.296C72.4256 15.7498 72.9313 16.9991 73.9427 18.0438C74.954 19.0886 76.1857 19.6111 77.6377 19.6112C78.6053 19.6112 79.5442 19.3646 80.4544 18.8713C81.3647 18.3781 82.0171 17.7226 82.4117 16.9049L80.2353 16.3005C79.5604 17.0143 78.6948 17.3713 77.6382 17.3713C76.9381 17.3713 76.3399 17.1832 75.8434 16.8069C75.347 16.4306 75.0287 15.9049 74.8885 15.2296H82.7572C82.8218 14.9354 82.8538 14.6351 82.8527 14.334C82.851 13.9806 82.8126 13.6283 82.7381 13.2827C82.509 12.0495 81.9139 11.0209 80.9527 10.1968C79.9916 9.37264 78.8872 8.96049 77.6395 8.96031C76.201 8.96031 74.9725 9.47307 73.9542 10.4986C72.9352 11.5378 72.4256 12.8036 72.4256 14.296ZM75.8337 11.8029C76.3237 11.4008 76.9189 11.1997 77.6191 11.1995C78.3194 11.1993 78.9114 11.4004 79.3951 11.8029C79.8787 12.2053 80.1905 12.7051 80.3307 13.3022H74.8885C75.028 12.7053 75.3431 12.2055 75.8337 11.8029ZM84.5128 19.4547H86.9945V14.1986C86.9945 13.2122 87.3032 12.534 87.9206 12.164C88.5381 11.794 89.1078 11.6089 89.6297 11.6089C90.0196 11.6126 90.4063 11.6783 90.7753 11.8037V9.09732C90.4981 9.04694 90.217 9.02085 89.9352 9.01933C89.3749 9.01933 88.8275 9.14932 88.2928 9.40929C87.7582 9.66927 87.3254 10.0909 86.9945 10.6743V9.13632H84.512V19.4555L84.5128 19.4547ZM91.979 14.2758C91.979 15.7295 92.4882 16.9821 93.5068 18.0334C94.5253 19.0848 95.7474 19.6105 97.173 19.6105C98.6116 19.6105 99.84 19.088 100.858 18.0431C101.877 16.9981 102.386 15.7424 102.386 14.2758C102.386 12.822 101.877 11.5726 100.858 10.5277C99.8399 9.48278 98.6114 8.96031 97.173 8.96031C95.747 8.96031 94.5249 9.47949 93.5068 10.5178C92.4886 11.5562 91.9793 12.8088 91.979 14.2758ZM95.1289 12.164C95.6889 11.5733 96.37 11.278 97.1722 11.278C97.9867 11.278 98.6742 11.57 99.2346 12.1541C99.7951 12.7382 100.075 13.4456 100.075 14.2763C100.075 15.1072 99.7947 15.8178 99.2346 16.4081C98.6745 16.9984 97.9871 17.2937 97.1722 17.2941C96.3701 17.2941 95.689 16.9987 95.1289 16.4081C94.5689 15.8174 94.2888 15.1068 94.2888 14.2763C94.2888 13.4588 94.5689 12.7547 95.1289 12.164ZM158.74 39.0714C158.854 38.9621 158.92 38.8122 158.923 38.6548C158.925 38.4974 158.865 38.3453 158.755 38.232C158.749 38.2255 158.743 38.2192 158.736 38.2132C158.678 38.1569 158.609 38.1127 158.534 38.0832C158.458 38.0537 158.377 38.0396 158.296 38.0417C158.214 38.0399 158.132 38.0544 158.056 38.0845C157.98 38.1146 157.91 38.1596 157.852 38.2169C157.793 38.2711 157.746 38.3371 157.715 38.4104C157.683 38.4837 157.667 38.5627 157.668 38.6425C157.667 38.7227 157.683 38.8022 157.715 38.876C157.746 38.9498 157.793 39.0164 157.852 39.0714C157.97 39.1866 158.13 39.2511 158.296 39.2513C158.461 39.2515 158.621 39.1873 158.74 39.0725V39.0714ZM156.887 37.5768C157.444 37.5768 157.922 37.3874 158.322 37.0085C158.723 36.6296 158.923 36.1684 158.923 35.6247C158.927 35.2326 158.803 34.8499 158.568 34.5343C158.336 34.2151 158.012 33.9723 157.64 33.8371L157.386 34.688C157.578 34.7637 157.745 34.8913 157.867 35.0564C157.99 35.2207 158.054 35.4204 158.051 35.6247C158.051 35.9252 157.936 36.1802 157.708 36.3898C157.486 36.5969 157.192 36.7099 156.887 36.7046C156.582 36.7095 156.287 36.5967 156.063 36.3898C155.832 36.1802 155.717 35.9252 155.717 35.6247C155.714 35.4227 155.779 35.2256 155.9 35.0634C156.023 34.8976 156.189 34.7679 156.381 34.688L156.135 33.8371C155.758 33.9715 155.432 34.2163 155.199 34.539C154.966 34.8537 154.841 35.235 154.845 35.6257C154.845 36.1647 155.041 36.6248 155.434 37.0059C155.831 37.3872 156.316 37.5779 156.888 37.5779L156.887 37.5768ZM156.879 33.3579C157.436 33.3579 157.916 33.1673 158.318 32.786C158.72 32.4047 158.921 31.9471 158.922 31.4131C158.922 30.8744 158.722 30.4144 158.322 30.0331C157.921 29.6518 157.44 29.4612 156.879 29.4612C156.322 29.4612 155.843 29.6518 155.443 30.0331C155.043 30.4144 154.843 30.8748 154.843 31.4141C154.843 31.9481 155.042 32.4057 155.439 32.787C155.837 33.1683 156.317 33.359 156.878 33.359L156.879 33.3579ZM156.07 32.1782C155.844 31.9685 155.73 31.7134 155.73 31.4131C155.728 31.268 155.756 31.1241 155.814 30.991C155.872 30.8578 155.958 30.7385 156.066 30.6409C156.289 30.4311 156.56 30.3261 156.879 30.3261C157.182 30.3202 157.475 30.4333 157.695 30.6409C157.804 30.7379 157.891 30.857 157.95 30.9902C158.008 31.1235 158.037 31.2677 158.035 31.4131C158.035 31.7134 157.922 31.9685 157.695 32.1782C157.473 32.3802 157.183 32.4923 156.882 32.4923C156.581 32.4923 156.291 32.3802 156.07 32.1782H156.07ZM158.863 28.8175V27.8878H156.768C156.469 27.8878 156.221 27.8211 156.022 27.6876C155.824 27.5542 155.724 27.3516 155.724 27.0798C155.724 26.8607 155.807 26.6915 155.974 26.5721C156.14 26.4527 156.365 26.3931 156.648 26.3935H158.863V25.4648H156.619C156.355 25.4456 156.14 25.3681 155.974 25.2324C155.807 25.0967 155.724 24.9049 155.724 24.6568C155.724 24.4378 155.807 24.2685 155.974 24.1491C156.14 24.0297 156.365 23.9699 156.648 23.9697H158.862V23.0408H156.424C155.937 23.0408 155.552 23.1827 155.268 23.4664C154.985 23.7501 154.843 24.085 154.843 24.471C154.845 24.712 154.906 24.949 155.022 25.1609C155.138 25.3843 155.307 25.5768 155.514 25.7222C155.307 25.8439 155.135 26.0177 155.017 26.2263C154.902 26.428 154.841 26.656 154.842 26.8879C154.842 27.2836 155.011 27.6173 155.349 27.8888H154.909V28.8185L158.863 28.8175Z" fill="#064CD4"/>
</svg>
