<?xml version="1.0" encoding="UTF-8"?>
<svg version="1.1" xmlns="http://www.w3.org/2000/svg" width="2852" height="488">
<path d="M0 0 C1.37154159 -0.00087416 2.74308285 -0.002629 4.11462235 -0.00517833 C7.85007321 -0.00961453 11.58540765 -0.00170007 15.3208437 0.00837779 C19.36157007 0.01706427 23.40229059 0.01408847 27.44302368 0.01257324 C34.43279306 0.01152766 41.42252491 0.01776997 48.41228485 0.02904892 C58.51813464 0.04534544 68.6239664 0.05051617 78.72982791 0.0530249 C95.12834687 0.0573955 111.52684587 0.07068735 127.925354 0.08963013 C143.84918112 0.10800538 159.7730028 0.12215383 175.69683838 0.13064575 C177.17067217 0.13143392 177.17067217 0.13143392 178.67428038 0.13223802 C183.60377624 0.13484821 188.53327215 0.13737559 193.46276808 0.13986182 C234.31814915 0.16057455 275.17350824 0.19578275 316.02886963 0.24050903 C315.51982912 5.28397582 314.93199968 10.23560697 313.85768127 15.19592285 C313.62206041 16.29447759 313.38643955 17.39303232 313.14367867 18.52487659 C312.75680791 20.29523037 312.75680791 20.29523037 312.36212158 22.10134888 C312.0877017 23.374435 311.81328182 24.64752111 311.53054619 25.9591856 C310.77409358 29.46799986 310.01207182 32.97558408 309.24910903 36.48298764 C308.4281766 40.261749 307.61254011 44.04165357 306.79627991 47.82142639 C305.38706243 54.34355566 303.9746299 60.86498168 302.55993652 67.38592529 C300.5190826 76.7931746 298.48289399 86.20142857 296.44810629 95.60999167 C295.50444891 99.97331303 294.5606282 104.33659906 293.61676025 108.69987488 C293.42829804 109.57109559 293.23983583 110.44231629 293.04566264 111.33993763 C291.69612769 117.57803816 290.34561745 123.8159271 288.99468994 130.0537262 C284.09313944 152.68726482 279.20448721 175.32354413 274.32894707 197.96269989 C273.27835467 202.841027 272.22739402 207.71927473 271.17634583 212.59750366 C270.83301831 214.19102973 270.48969142 215.78455593 270.14636517 217.37808228 C269.63838948 219.73581087 269.13041369 222.09353945 268.62243426 224.45126724 C266.81256813 232.85168469 265.00322632 241.25221437 263.19528198 249.65304565 C261.80384584 256.11841471 260.41100093 262.58347845 259.01642877 269.04817182 C258.30902649 272.32763445 257.60249626 275.60727839 256.89731789 278.88722038 C256.1332571 282.44068152 255.36675506 285.99360783 254.59967041 289.54641724 C254.38170461 290.563001 254.1637388 291.57958477 253.93916798 292.62697411 C247.87184649 320.65874878 236.02476311 340.83057714 212.02886963 357.24050903 C198.93440165 365.65384672 185.2278867 371.40487401 170.09918213 374.98660278 C169.02452194 375.24245148 167.94986176 375.49830017 166.84263611 375.76190186 C153.66061672 378.85513086 140.39936198 381.56571687 127.12872314 384.24734497 C123.50434715 384.97988861 119.88199511 385.72198012 116.26004505 386.4664135 C113.42897643 387.0470311 110.59682165 387.62219983 107.76431847 388.19577408 C105.78393099 388.59794278 103.80455593 389.00508678 101.82521057 389.41235352 C100.0249366 389.77370895 100.0249366 389.77370895 98.18829346 390.1423645 C97.14006912 390.35521088 96.09184479 390.56805725 95.01185608 390.78735352 C91.97047796 391.24937951 89.1001647 391.32111801 86.02886963 391.24050903 C95.41407395 347.00091387 105.02992276 302.8119665 114.69854164 258.63360596 C115.14888501 256.57578598 115.5991651 254.51795216 116.04942322 252.46011353 C117.80686002 244.42811798 119.56504073 236.39628571 121.32423782 228.36467552 C121.85817341 225.92697139 122.39203306 223.48925062 122.92579269 221.05150795 C129.26417154 192.10804803 135.65329348 163.17581616 142.02886963 134.24050903 C56.55886963 134.24050903 -28.91113037 134.24050903 -116.97113037 134.24050903 C-102.70448132 93.81833673 -102.70448132 93.81833673 -98.46893311 82.31912231 C-97.63310199 80.04608476 -96.80511716 77.77026935 -95.97698975 75.49441528 C-93.26412552 68.08614494 -90.42607255 60.75336575 -87.28753662 53.51394653 C-87.01092697 52.87198334 -86.73431732 52.23002014 -86.44932556 51.56860352 C-77.1316727 30.48376952 -59.68729668 15.57231168 -38.97113037 6.24050903 C-26.25204911 1.3385142 -13.54476702 -0.06317358 0 0 Z " fill="#FFC300" transform="translate(162.97113037109375,19.759490966796875)"/>
<path d="M0 0 C1.07459473 0.00506058 1.07459473 0.00506058 2.17089844 0.01022339 C31.63702704 0.2104365 56.34103741 9.74785164 77.6875 30.4375 C80.6575 34.0675 83.6275 37.6975 86.6875 41.4375 C87.0175 29.8875 87.3475 18.3375 87.6875 6.4375 C111.7775 6.4375 135.8675 6.4375 160.6875 6.4375 C160.7537287 43.71236919 160.80908558 80.98718255 160.84069599 118.2620938 C160.84444777 122.67017202 160.84833077 127.0782501 160.85229492 131.48632812 C160.85308185 132.36383789 160.85386878 133.24134766 160.85467956 134.14544864 C160.86770703 148.32410028 160.8913461 162.50271515 160.91895839 176.68134503 C160.9470868 191.2472895 160.96369192 205.81321481 160.96976548 220.37918532 C160.97386656 229.35555509 160.9867842 238.33182091 161.0112494 247.30815865 C161.02719856 253.47697166 161.03187977 259.64573152 161.02800413 265.81456362 C161.02609674 269.36513187 161.02886481 272.91551942 161.04511642 276.46605492 C161.21909991 316.52148204 152.52710762 352.31633415 123.6875 381.4375 C123.00042969 382.18515625 122.31335937 382.9328125 121.60546875 383.703125 C100.45144968 406.32679171 65.7097778 417.40154765 35.44604492 418.56176758 C-9.55529881 419.54475493 -53.48012212 410.75986727 -87.24047852 378.98046875 C-105.11220078 361.45271139 -115.1641528 337.85541361 -119.3125 313.4375 C-119.3125 312.4475 -119.3125 311.4575 -119.3125 310.4375 C-94.2325 310.4375 -69.1525 310.4375 -43.3125 310.4375 C-41.6625 314.3975 -40.0125 318.3575 -38.3125 322.4375 C-31.55991654 335.50901477 -21.79195826 342.96736462 -8.3125 348.4375 C-4.01405558 349.75749474 0.25397112 350.70152243 4.6875 351.4375 C5.81865234 351.63279297 5.81865234 351.63279297 6.97265625 351.83203125 C25.98704797 354.49760018 47.26772203 352.24422929 63.5625 341.55078125 C77.47590487 331.01220524 83.21896426 316.18016104 86.23120117 299.41064453 C86.81361587 294.33936751 86.81111884 289.3536432 86.78515625 284.25390625 C86.7837413 283.19840073 86.78232635 282.1428952 86.78086853 281.05540466 C86.77529722 277.70357357 86.76275002 274.35181071 86.75 271 C86.74498129 268.71940201 86.74041903 266.43880297 86.73632812 264.15820312 C86.7253372 258.58461237 86.70862776 253.01106106 86.6875 247.4375 C86.07551758 248.11804443 85.46353516 248.79858887 84.83300781 249.49975586 C84.02702148 250.39573486 83.22103516 251.29171387 82.390625 252.21484375 C81.59301758 253.10163818 80.79541016 253.98843262 79.97363281 254.90209961 C63.23292851 273.46811992 41.31471656 283.92013362 16.6875 287.4375 C12.13104182 287.64990729 7.57533868 287.66556713 3.01464844 287.67773438 C0.85310557 287.68731993 -1.30743455 287.71833237 -3.46875 287.75 C-35.35419273 287.99250342 -63.81784142 274.8488918 -86.4375 252.75 C-115.43782606 223.47051789 -127.3209809 184.47580994 -127.5625 143.9375 C-127.30056129 100.0009187 -113.04402723 62.26276794 -81.91796875 31.03515625 C-59.59149114 9.96755134 -30.43931555 -0.28080714 0 0 Z M-35.4375 92.5625 C-49.80781511 109.46361959 -54.83599692 130.63489186 -53.3125 152.4375 C-51.33335093 171.3652831 -43.25657342 188.33980433 -29.3125 201.4375 C-15.5069091 212.54931706 -1.18118739 217.84618432 16.5 217.75 C18.09666504 217.74262817 18.09666504 217.74262817 19.72558594 217.73510742 C27.09502726 217.62493868 33.73736155 217.03853666 40.6875 214.4375 C41.66203125 214.10878906 42.6365625 213.78007812 43.640625 213.44140625 C51.70996643 210.4516118 58.1119663 205.92989185 64.6875 200.4375 C65.34492188 199.89480469 66.00234375 199.35210937 66.6796875 198.79296875 C79.7297511 186.91560672 86.82475731 168.61203067 87.80859375 151.30761719 C88.71162755 129.8966857 84.40808426 109.60699202 69.83984375 93.140625 C58.43282658 80.83925235 43.29494125 71.45835935 26.15478516 70.26049805 C1.41238697 69.69437754 -17.76895947 73.99847788 -35.4375 92.5625 Z " fill="#003566" transform="translate(2063.3125,69.5625)"/>
<path d="M0 0 C0.80598633 0.19867676 1.61197266 0.39735352 2.44238281 0.60205078 C22.95947981 5.81528346 42.38006159 15.26976398 57.81640625 29.95703125 C60.01162628 32.06540974 60.01162628 32.06540974 62.58203125 34.0546875 C88.3368438 54.7750375 101.934608 92.44959398 105.53759766 124.16918945 C106.65226144 136.42041013 107.41636491 149.91817547 105 162 C34.71 162 -35.58 162 -108 162 C-103.05148068 184.26833692 -97.20484813 202.62928847 -77.75 215.75 C-59.44616682 226.79895252 -38.69530526 229.13475402 -18 225 C-8.38131897 222.50011945 -0.01475022 218.96266442 8 213 C8.72832031 212.46632813 9.45664063 211.93265625 10.20703125 211.3828125 C16.37228451 206.45532519 20.49023274 200.01953453 24 193 C49.41 193 74.82 193 101 193 C88.66915093 229.9925472 67.99761685 256.36038436 32.95800781 274.16870117 C26.02300901 277.56060811 18.97185758 280.15320542 11.5625 282.3125 C10.77794434 282.54283936 9.99338867 282.77317871 9.18505859 283.01049805 C-5.0576524 286.90800633 -19.24191153 288.50521254 -33.97680664 288.39111328 C-36.43367161 288.37502507 -38.8888871 288.39108273 -41.34570312 288.41015625 C-56.09685808 288.43052444 -70.87481247 286.81281048 -85 282.375 C-85.81339844 282.12411621 -86.62679687 281.87323242 -87.46484375 281.61474609 C-101.2760882 277.1590769 -114.376367 270.70499814 -126 262 C-126.87269531 261.34902344 -127.74539062 260.69804687 -128.64453125 260.02734375 C-158.45454838 236.6768911 -177.3939499 204.39114135 -182.625 166.79296875 C-186.70880891 125.48694326 -180.32854143 84.50875943 -154.25 51.0625 C-133.13136319 25.44449911 -107.52407585 7.87409429 -75 0 C-74.33887207 -0.16516113 -73.67774414 -0.33032227 -72.99658203 -0.50048828 C-50.64812851 -5.79599295 -22.25315141 -5.63672224 0 0 Z M-88.40576172 77.7434082 C-96.73747803 86.67422787 -100.81511604 96.4915691 -105 108 C-61.44 108 -17.88 108 27 108 C21.98716369 89.61960021 13.29044199 76.18431189 -3 66 C-30.87870292 50.81852811 -65.96515605 54.96199122 -88.40576172 77.7434082 Z " fill="#003566" transform="translate(2448,73)"/>
<path d="M0 0 C2.37823785 0.00315159 4.75521619 -0.02036597 7.13330078 -0.0456543 C21.19767201 -0.1046345 34.67471819 1.83875249 48.14501953 6.00317383 C48.97477295 6.25808594 49.80452637 6.51299805 50.65942383 6.77563477 C86.22342172 18.13169246 116.48780985 44.88388905 133.64257812 77.8371582 C140.41832247 91.50353638 144.84381898 106.25166099 147.14501953 121.31567383 C147.32806641 122.44875977 147.51111328 123.5818457 147.69970703 124.74926758 C152.42915972 164.22273347 144.17760262 204.70521497 119.66796875 236.41577148 C115.75144376 241.30169605 111.51928321 245.83642782 107.14501953 250.31567383 C106.55591797 250.95504883 105.96681641 251.59442383 105.35986328 252.25317383 C82.60559017 276.40512956 47.07926579 290.63171624 14.22085571 291.67565918 C11.13576585 291.72735841 8.05315766 291.7320931 4.96777344 291.70678711 C2.64474853 291.69067195 0.32346215 291.7067773 -1.99951172 291.72583008 C-41.65896183 291.78186539 -76.35069372 275.35598786 -104.40625 247.78735352 C-132.28790536 219.46402718 -143.43942794 181.34717463 -143.20654297 142.46508789 C-142.6624861 112.62507979 -134.95075421 83.47864656 -116.85498047 59.31567383 C-116.20400391 58.44297852 -115.55302734 57.5702832 -114.88232422 56.67114258 C-93.47090999 29.33657076 -63.30379904 8.74800995 -28.85498047 2.31567383 C-27.50533203 2.05185913 -27.50533203 2.05185913 -26.12841797 1.78271484 C-17.3936726 0.24028062 -8.84128176 -0.02438351 0 0 Z M-53.22998047 95.87817383 C-67.61882605 113.76928974 -70.76602712 136.21580019 -68.6484375 158.48803711 C-66.09922413 178.10589653 -56.73493716 194.38138755 -41.85498047 207.31567383 C-25.4357023 219.68438117 -6.44366381 223.93738627 13.76269531 221.41894531 C32.75000576 218.63222921 48.23596012 208.4171456 59.95751953 193.44067383 C68.14241269 182.01352546 73.53645195 167.49022707 74.14501953 153.31567383 C74.19658203 152.25477539 74.24814453 151.19387695 74.30126953 150.10083008 C74.87568658 127.29168629 68.50456491 106.60729306 52.64501953 89.72973633 C36.20509473 73.85493394 18.51008408 69.64169814 -3.65966797 70.00708008 C-24.2865461 70.75777135 -39.73872641 81.05531548 -53.22998047 95.87817383 Z " fill="#003566" transform="translate(1754.85498046875,69.684326171875)"/>
<path d="M0 0 C21.60753891 16.99872867 33.77695498 41.83891046 37.39239591 68.84526724 C38.00336021 74.00071909 38.27414772 79.05091682 38.25306702 84.23963928 C38.25434865 85.42111177 38.25434865 85.42111177 38.25565618 86.62645239 C38.25728952 89.23805273 38.25182513 91.84958732 38.24633789 94.46118164 C38.24605553 96.34425861 38.24621471 98.22733569 38.2467804 100.1104126 C38.24706646 105.20270217 38.24120063 110.29496802 38.23420644 115.38725209 C38.22794106 120.716373 38.22736658 126.0454945 38.22618103 131.37461853 C38.22307709 141.45724992 38.21487636 151.53987042 38.20483154 161.62249702 C38.19364127 173.10495254 38.18815261 184.58740859 38.18313611 196.06986821 C38.17269295 219.68200289 38.15435913 243.29412266 38.1328125 266.90625 C14.0428125 266.90625 -10.0471875 266.90625 -34.8671875 266.90625 C-34.91617188 255.16933594 -34.96515625 243.43242187 -35.015625 231.33984375 C-35.05102506 223.88866465 -35.08691387 216.43749318 -35.125 208.98632812 C-35.18531452 197.1687191 -35.24367698 185.35112432 -35.2890625 173.53344727 C-35.32213254 164.92492579 -35.36204521 156.31646703 -35.40997756 147.70801502 C-35.43509422 143.15518917 -35.4569182 138.60240411 -35.47053146 134.04952812 C-35.48348784 129.7526467 -35.5056841 125.4559063 -35.53457069 121.15910339 C-35.54354161 119.59317628 -35.54931172 118.02722652 -35.55140114 116.4612751 C-35.58050849 97.93795675 -36.35461348 78.1733479 -49.71484375 63.9375 C-62.26108082 52.16449026 -77.94505674 52.35313245 -94.21875 52.59375 C-109.20055744 53.09804646 -123.28013181 57.98674916 -133.73046875 69.09375 C-143.30207085 81.69256812 -147.93953834 97.14645425 -148.02540588 112.86021423 C-148.03034386 113.52364714 -148.03528184 114.18708004 -148.04036945 114.87061697 C-148.05561821 117.0738172 -148.06407045 119.2769886 -148.07250977 121.48022461 C-148.08209824 123.06744638 -148.09210888 124.65466566 -148.10250854 126.24188232 C-148.12945865 130.53676931 -148.15052155 134.83166718 -148.17051053 139.12659144 C-148.19243137 143.62026734 -148.21979013 148.11391009 -148.24656677 152.6075592 C-148.2964114 161.11068166 -148.34138065 169.6138226 -148.38458914 178.11698109 C-148.44328181 189.61171556 -148.50952432 201.10640639 -148.57533932 212.60110188 C-148.67878521 230.70278847 -148.77215995 248.80451272 -148.8671875 266.90625 C-173.2871875 266.90625 -197.7071875 266.90625 -222.8671875 266.90625 C-222.8671875 174.83625 -222.8671875 82.76625 -222.8671875 -12.09375 C-198.4471875 -12.09375 -174.0271875 -12.09375 -148.8671875 -12.09375 C-148.5371875 -0.87375 -148.2071875 10.34625 -147.8671875 21.90625 C-144.5671875 17.94625 -141.2671875 13.98625 -137.8671875 9.90625 C-100.81476966 -23.17626593 -41.27096273 -30.13792374 0 0 Z " fill="#003566" transform="translate(2813.8671875,88.09375)"/>
<path d="M0 0 C0.93070313 0.45246094 1.86140625 0.90492187 2.8203125 1.37109375 C25.36243705 12.95611319 39.51734758 33.02175444 47.8125 56.4375 C53.70494352 75.30522319 54.15784702 94.635652 54.11352539 114.22631836 C54.11324258 116.00190733 54.11340308 117.77749642 54.1139679 119.55308533 C54.11425222 124.32478264 54.10841502 129.0964543 54.10139394 133.8681457 C54.09509913 138.87291629 54.09455179 143.87768761 54.09336853 148.88246155 C54.09027316 158.33803088 54.08208417 167.79358851 54.07201904 177.24915272 C54.06080191 188.02317549 54.0553334 198.79719884 54.05032361 209.571226 C54.03989987 231.71415863 54.02157694 253.85707524 54 276 C29.58 276 5.16 276 -20 276 C-20.03738281 263.90214844 -20.07476563 251.80429687 -20.11328125 239.33984375 C-20.14356869 231.66079598 -20.17460113 223.98176309 -20.20898438 216.30273438 C-20.263382 204.12297947 -20.3147988 191.94326588 -20.34643555 179.76342773 C-20.36949492 170.8911964 -20.40298083 162.01907433 -20.44870156 153.1469298 C-20.47252721 148.45435627 -20.49132552 143.76189025 -20.49761391 139.06925774 C-20.50371338 134.64099973 -20.52388597 130.21301641 -20.55427551 125.78486061 C-20.56297858 124.17056062 -20.56679463 122.55622462 -20.56500816 120.94190216 C-20.5525523 104.47407046 -22.06263023 87.23351454 -32.94921875 74.0390625 C-44.57200066 62.48269648 -59.69767561 61.73855536 -75.10595703 61.75341797 C-90.9628726 61.91492974 -105.16572699 65.44194902 -116.97265625 76.7578125 C-131.3094979 92.61397263 -133.29043425 113.51635161 -133.31884766 133.97973633 C-133.32816959 135.53828946 -133.33834154 137.09683769 -133.34928894 138.65538025 C-133.37634801 142.84454918 -133.39166596 147.03368496 -133.40471697 151.2229178 C-133.42045418 155.61647948 -133.44721004 160.00997448 -133.4727478 164.40348816 C-133.51934953 172.70453265 -133.55618309 181.00558996 -133.58942068 189.30669755 C-133.63495995 200.53719836 -133.69576426 211.76761617 -133.75566864 222.99804783 C-133.84950922 240.6653234 -133.92310614 258.33262371 -134 276 C-158.09 276 -182.18 276 -207 276 C-207 183.93 -207 91.86 -207 -3 C-182.91 -3 -158.82 -3 -134 -3 C-133.67 8.22 -133.34 19.44 -133 31 C-131.205625 29.02 -129.41125 27.04 -127.5625 25 C-96.056996 -9.20318403 -42.64446585 -21.19862578 0 0 Z " fill="#003566" transform="translate(762,79)"/>
<path d="M0 0 C24.42 0 48.84 0 74 0 C74.0093457 5.19242432 74.01869141 10.38484863 74.02832031 15.73461914 C74.0621335 32.9175399 74.1175074 50.10034166 74.18390274 67.28316593 C74.22362263 77.6979757 74.25605084 88.11271067 74.27099609 98.52758789 C74.28404926 107.61079073 74.31110697 116.69382852 74.35461307 125.77693838 C74.37714574 130.58132692 74.39291563 135.38551251 74.39188385 140.18995857 C74.39113236 144.72333795 74.40927709 149.2562701 74.44116783 153.78953362 C74.44960178 155.44253368 74.45146167 157.0955843 74.44580269 158.74859619 C74.39888865 174.57541679 77.29070457 188.06633337 85.6875 201.75 C96.08557211 211.86704314 110.90192736 215.13244536 125 215 C141.62359574 214.18481194 157.29862599 210.30257542 169.25 197.9375 C188.03920523 175.29014175 185.31156281 143.7035915 185.40471697 116.08661556 C185.42056376 111.99205015 185.44728262 107.89755441 185.4727478 103.80303955 C185.51916041 96.08305141 185.55608348 88.3630496 185.58942068 80.64299512 C185.63513614 70.1871715 185.69586899 59.73143513 185.75566864 49.27568436 C185.84922116 32.85050042 185.92301912 16.42528935 186 0 C210.09 0 234.18 0 259 0 C259 92.07 259 184.14 259 279 C234.91 279 210.82 279 186 279 C185.67 267.45 185.34 255.9 185 244 C183.246875 245.93875 181.49375 247.8775 179.6875 249.875 C160.873023 270.29147137 138.42879108 284.2177884 109.97441101 285.38438416 C106.54429778 285.46773154 103.11830612 285.46799937 99.6875 285.4375 C98.96865631 285.43479095 98.24981262 285.43208191 97.50918579 285.42929077 C81.55096269 285.33828313 67.47896865 283.09427977 53 276 C51.61941406 275.33871094 51.61941406 275.33871094 50.2109375 274.6640625 C29.59880743 264.15477928 14.3857564 244.74396744 7 223 C6.0109124 219.89330331 5.10876675 216.77008967 4.25 213.625 C4.05116211 212.90739502 3.85232422 212.18979004 3.64746094 211.45043945 C0.05990094 197.43711012 -0.28932597 183.29027189 -0.22705078 168.92578125 C-0.22648512 167.07122809 -0.22680624 165.21667448 -0.22793579 163.36212158 C-0.22850427 158.37971658 -0.21683273 153.39740997 -0.20278788 148.41502762 C-0.19019536 143.18871829 -0.18910335 137.96240614 -0.18673706 132.73608398 C-0.18054714 122.86262365 -0.16417035 112.98920816 -0.14403808 103.11576748 C-0.12160118 91.86531449 -0.11066615 80.61485925 -0.10064721 69.36438942 C-0.07980164 46.24289577 -0.04315688 23.12146351 0 0 Z " fill="#003566" transform="translate(857,76)"/>
<path d="M0 0 C0 25.08 0 50.16 0 76 C34.32 76 68.64 76 104 76 C104 98.77 104 121.54 104 145 C69.68 145 35.36 145 0 145 C0.12375 161.520625 0.2475 178.04125 0.375 195.0625 C0.40899902 200.25105713 0.44299805 205.43961426 0.47802734 210.78540039 C0.51800091 215.49536473 0.51800091 215.49536473 0.56045532 220.20530701 C0.57797337 222.27962163 0.5918502 224.3539692 0.60269165 226.42832947 C0.36852667 256.80030633 0.36852667 256.80030633 14.5546875 282.68359375 C22.68215256 290.48051598 34.34638777 292.33841762 45.22729492 292.3828125 C64.93357538 291.93981919 84.46774818 285.1001143 103 279 C105.01726955 284.50495847 106.18615427 290.11528403 107.3828125 295.83984375 C107.60194305 296.88016251 107.82107361 297.92048126 108.04684448 298.99232483 C108.50756159 301.1864641 108.96635348 303.3810084 109.42333984 305.57592773 C110.12218896 308.92403263 110.83228777 312.26962372 111.54296875 315.61523438 C111.9902747 317.75245959 112.43691163 319.88982495 112.8828125 322.02734375 C113.09527618 323.02233383 113.30773987 324.01732391 113.52664185 325.04246521 C114.57573808 330.13818065 115.24464037 334.79710426 115 340 C81.20533669 357.94613155 38.05645203 368.79334099 0.0859375 358.328125 C-16.4501875 353.15312199 -29.88997926 345.40180768 -43 334 C-43.93779297 333.20722656 -43.93779297 333.20722656 -44.89453125 332.3984375 C-57.37304378 321.00120123 -64.38130201 304.5858707 -68.75 288.625 C-68.94891846 287.90731445 -69.14783691 287.18962891 -69.3527832 286.45019531 C-73.05183281 271.99676596 -73.28207817 257.43628799 -73.1953125 242.625 C-73.19157153 240.71972809 -73.1887297 238.81445423 -73.18673706 236.90917969 C-73.17918583 231.95107491 -73.15961296 226.99309169 -73.1373291 222.03503418 C-73.1166848 216.95306033 -73.10769605 211.8710664 -73.09765625 206.7890625 C-73.07635699 196.85932228 -73.04232703 186.92967134 -73 177 C-64.253553 172.58556528 -55.51004222 168.2080027 -46.56640625 164.203125 C-45.23403175 163.60174713 -45.23403175 163.60174713 -43.8747406 162.98822021 C-41.10535034 161.73910878 -38.33397615 160.49447528 -35.5625 159.25 C-33.68801885 158.40524119 -31.81366924 157.56019042 -29.93945312 156.71484375 C-21.96876217 153.12217425 -13.98947445 149.55087753 -6 146 C-63.915 145.505 -63.915 145.505 -123 145 C-123 122.23 -123 99.46 -123 76 C-106.5 76 -90 76 -73 76 C-73 55.87 -73 35.74 -73 15 C-55.94038643 11.25651113 -55.94038643 11.25651113 -48.66796875 9.66796875 C-43.70536236 8.58394289 -38.74296629 7.49901078 -33.78173828 6.40869141 C-29.78197137 5.52972996 -25.78133669 4.65482598 -21.78006744 3.7827301 C-20.25353631 3.44926863 -18.72732371 3.11434548 -17.2014389 2.77793884 C-15.06447904 2.30707199 -12.92644651 1.84141101 -10.78808594 1.37695312 C-9.5711908 1.11047974 -8.35429565 0.84400635 -7.1005249 0.56945801 C-4 -0 -4 -0 0 0 Z " fill="#003566" transform="translate(1267,0)"/>
<path d="M0 0 C1.79620285 -0.0098568 1.79620285 -0.0098568 3.62869263 -0.01991272 C7.58334728 -0.0395914 11.53798862 -0.05130147 15.49267578 -0.0612793 C16.85888819 -0.06533042 18.2251004 -0.06944745 19.59131241 -0.07362938 C26.00921501 -0.09265286 32.42710629 -0.10689233 38.84503162 -0.11524135 C46.23567261 -0.12501696 53.62601437 -0.15135653 61.01654994 -0.19174224 C66.7424411 -0.221951 72.46824663 -0.23671453 78.19421589 -0.24002236 C81.60836116 -0.24236649 85.02218568 -0.2512438 88.43624496 -0.27648354 C92.24680211 -0.30082512 96.05657644 -0.29991875 99.8671875 -0.29296875 C100.9884906 -0.30577881 102.1097937 -0.31858887 103.26507568 -0.33178711 C110.6139756 -0.28298695 116.4410678 0.60122058 121.90283203 5.9934082 C122.26505859 6.56961914 122.62728516 7.14583008 123.00048828 7.73950195 C123.57089844 8.60768555 123.57089844 8.60768555 124.15283203 9.4934082 C128.47830177 17.49459901 125.65338362 27.56808621 123.84741211 35.93798828 C123.49370041 37.63523796 123.49370041 37.63523796 123.13284302 39.36677551 C122.35540979 43.08308429 121.56327067 46.79607121 120.77001953 50.5090332 C120.35989823 52.450982 119.94978388 54.3929324 119.54051608 56.33506125 C118.25482304 62.43607661 116.95907803 68.53489438 115.65649414 74.63232422 C114.32042848 80.88714748 112.99942484 87.1450108 111.68621236 93.40466863 C110.55184402 98.80969819 109.40896594 104.21287941 108.25925463 109.61466616 C107.57552271 112.82720551 106.89550252 116.04044009 106.22153664 119.25504494 C100.61795023 145.92693298 93.50017383 169.9282978 69.79541016 186.05883789 C56.52965436 194.62100835 42.43302343 198.80528677 26.65112305 198.69458008 C25.39235855 198.70158936 24.13359406 198.70859863 22.83668518 198.71582031 C19.43203211 198.73381577 16.02787209 198.72709027 12.6232121 198.71430397 C9.0390742 198.70406653 5.45497418 198.71359764 1.87083435 198.71984863 C-4.13639806 198.7270876 -10.14343252 198.7176299 -16.15063477 198.69848633 C-23.08100208 198.67665501 -30.01089973 198.68382898 -36.94125599 198.70579195 C-42.91870897 198.72397072 -48.89602107 198.72649433 -54.87349278 198.71603727 C-58.43218856 198.70982477 -61.99066369 198.70890576 -65.54934502 198.72218323 C-69.51005089 198.73593459 -73.4702334 198.71685164 -77.4309082 198.69458008 C-78.59934265 198.702677 -79.7677771 198.71077393 -80.97161865 198.71911621 C-87.52135687 198.65091609 -91.62780673 198.11761276 -96.93701172 194.17700195 C-101.92585287 188.79430492 -102.17302978 184.56506634 -102.10629654 177.48633766 C-101.83831026 172.24749494 -100.83539856 167.24893252 -99.73730469 162.12890625 C-99.50310318 160.99057343 -99.26890167 159.8522406 -99.02760315 158.67941284 C-98.25693294 154.95070663 -97.4687889 151.2259627 -96.67919922 147.5012207 C-96.27087197 145.54857407 -95.86255323 143.59592549 -95.45520985 141.64307338 C-94.17604396 135.51089474 -92.88482104 129.38134458 -91.58544922 123.25341797 C-90.25441171 116.97530119 -88.94198697 110.69350585 -87.6390847 104.40949506 C-86.51192138 98.97593048 -85.37393032 93.5447109 -84.22736657 88.11520702 C-83.54622399 84.88946186 -82.86985618 81.66286368 -82.20129013 78.43448448 C-76.70279082 51.95130405 -69.08428662 27.88795339 -45.37451172 12.23950195 C-30.85170107 3.67583599 -16.76407571 0.04005592 0 0 Z " fill="#003566" transform="translate(101.93701171875,212.822998046875)"/>
<path d="M0 0 C2.10141209 0.03197584 4.20207647 0.04106938 6.30371094 0.046875 C16.51393487 0.11647393 16.51393487 0.11647393 17.67871094 1.28125 C17.77363816 3.62378782 17.80430885 5.93671104 17.79223633 8.27954102 C17.79238235 9.01120483 17.79252838 9.74286865 17.79267883 10.4967041 C17.79197961 12.92621784 17.78418678 15.35565583 17.77636719 17.78515625 C17.77450304 19.46524514 17.77307912 21.14533457 17.77207947 22.82542419 C17.76825401 27.25598643 17.7584235 31.6865161 17.74737549 36.11706543 C17.73716196 40.63467976 17.73258197 45.15229934 17.72753906 49.66992188 C17.71680125 58.54037893 17.6997245 67.41081176 17.67871094 76.28125 C16.43902809 76.27192192 16.43902809 76.27192192 15.17430115 76.2624054 C12.0610237 76.24197408 8.94778082 76.22718462 5.8344574 76.21601868 C3.84318754 76.20722288 1.85194872 76.19212157 -0.13928223 76.17687988 C-24.18310161 76.10479016 -48.11288006 81.98786803 -65.66113281 99.39453125 C-81.23211632 116.29167782 -84.42581817 138.76282133 -84.52661133 160.85742188 C-84.53620587 162.21819343 -84.54621684 163.5789621 -84.55661011 164.93972778 C-84.58349463 168.61267207 -84.60459255 172.285629 -84.62461209 175.95861626 C-84.64657393 179.80499409 -84.67391243 183.65133373 -84.70066833 187.49768066 C-84.75045801 194.77183296 -84.79544739 202.04600661 -84.8386907 209.32020044 C-84.89744451 219.15650334 -84.96365711 228.9927559 -85.02944088 238.82901382 C-85.13280069 254.31305856 -85.22623253 269.79714691 -85.32128906 285.28125 C-109.74128906 285.28125 -134.16128906 285.28125 -159.32128906 285.28125 C-159.32128906 193.21125 -159.32128906 101.14125 -159.32128906 6.28125 C-134.90128906 6.28125 -110.48128906 6.28125 -85.32128906 6.28125 C-84.99128906 20.47125 -84.66128906 34.66125 -84.32128906 49.28125 C-81.02128906 44.00125 -77.72128906 38.72125 -74.32128906 33.28125 C-55.52280475 10.30532473 -29.33748154 -0.45112898 0 0 Z " fill="#003566" transform="translate(1577.3212890625,69.71875)"/>
</svg>
