<?xml version="1.0" encoding="iso-8859-1"?>
<!-- Uploaded to: SVG Repo, www.svgrepo.com, Generator: SVG Repo Mixer Tools -->
<svg height="800px" width="800px" version="1.1" id="Layer_1" xmlns="http://www.w3.org/2000/svg" xmlns:xlink="http://www.w3.org/1999/xlink" 
	 viewBox="0 0 511.6 511.6" xml:space="preserve">
<path style="fill:#8CC153;" d="M362.389,255.8c0,58.86-47.713,106.573-106.589,106.573c-58.86,0-106.573-47.713-106.573-106.573
	c0-58.868,47.713-106.581,106.573-106.581C314.676,149.219,362.389,196.932,362.389,255.8z"/>
<path style="fill:#A0D468;" d="M149.227,255.8c0-58.298,46.808-105.659,104.887-106.565V21.32V0h-68.071v58.438
	c-6.994,2.467-13.833,5.301-20.453,8.47l-41.327-41.319l-98.657,98.665l41.312,41.312c-3.169,6.636-5.995,13.475-8.478,20.469H0
	v139.523h58.438c2.482,6.995,5.309,13.833,8.478,20.469l-41.312,41.327l98.657,98.642l41.312-41.312
	c6.636,3.185,13.475,5.995,20.469,8.478V511.6h68.071v-21.327v-127.9C196.034,361.467,149.227,314.098,149.227,255.8z"/>
<path style="fill:#4FC2E9;" d="M255.8,0c-3.56,0-7.119,0.078-10.647,0.219v511.163c3.528,0.14,7.088,0.218,10.647,0.218
	c141.28,0,255.8-114.535,255.8-255.8C511.6,114.528,397.08,0,255.8,0z"/>
<path style="fill:#3BAFDA;" d="M255.8,0c-3.56,0-7.119,0.078-10.647,0.219v511.163c3.528,0.14,7.088,0.218,10.647,0.218
	c141.28,0,255.8-114.535,255.8-255.8C511.6,114.528,397.08,0,255.8,0z M464.731,362.373h-82.607
	c10.305-30.227,16.331-62.451,17.393-95.918h90.523c-1.234,27.908-7.322,54.965-18.158,80.617
	C469.664,352.272,467.291,357.377,464.731,362.373z M271.35,489.774c-1.623,0.109-3.247,0.203-4.887,0.281V383.7h84.31
	c-15.363,33.817-36.519,64.324-62.966,90.772C282.483,479.797,277.002,484.903,271.35,489.774z M266.463,362.373v-95.918h111.726
	c-1.108,33.029-7.354,65.191-18.657,95.918H266.463z M271.35,21.819c5.652,4.887,11.133,9.984,16.457,15.301
	c26.447,26.456,47.603,56.971,62.966,90.78h-84.31V21.553C268.103,21.623,269.727,21.717,271.35,21.819z M359.531,149.219
	c11.304,30.734,17.549,62.904,18.657,95.926H266.463v-95.926H359.531z M490.039,245.145h-90.523
	c-1.062-33.475-7.088-65.684-17.377-95.926h82.592c2.561,5.004,4.934,10.109,7.15,15.316
	C482.717,190.18,488.805,217.244,490.039,245.145z M421.608,89.992c11.647,11.639,21.92,24.316,30.773,37.907h-78.346
	C358.22,90.235,335.628,56.12,307.776,27.08c13.41,3.029,26.525,7.252,39.297,12.654C374.988,51.546,400.078,68.454,421.608,89.992z
	 M421.608,421.608c-21.529,21.546-46.619,38.439-74.535,50.258c-12.771,5.402-25.887,9.633-39.297,12.662
	c27.837-29.04,50.429-63.169,66.26-100.827h78.346C443.528,397.283,433.255,409.961,421.608,421.608z"/>
</svg>